<?xml version="1.0" standalone="no"?><!DOCTYPE svg PUBLIC "-//W3C//DTD SVG 1.1//EN" "http://www.w3.org/Graphics/SVG/1.1/DTD/svg11.dtd"><svg t="1718947796678" class="icon" viewBox="0 0 1024 1024" version="1.1" xmlns="http://www.w3.org/2000/svg" p-id="1895" xmlns:xlink="http://www.w3.org/1999/xlink" width="200" height="200"><path d="M828.9 583.5H363.5c-1.1 0-2.1-0.9-2.1-2.1v-77c0-1.1 0.9-2.1 2.1-2.1h465.3c1.1 0 2.1 0.9 2.1 2.1v77c0 1.1-0.9 2.1-2 2.1z" fill="#EBECCE" p-id="1896"></path><path d="M800 598.5H392.4c-25.4 0-46-20.6-46-46v-19.3c0-25.4 20.6-46 46-46H800c25.4 0 46 20.6 46 46v19.3c0 25.4-20.6 46-46 46z m-407.6-81.2c-8.8 0-15.9 7.1-15.9 15.9v19.3c0 8.8 7.1 15.9 15.9 15.9H800c8.8 0 15.9-7.1 15.9-15.9v-19.3c0-8.8-7.1-15.9-15.9-15.9H392.4z" fill="#533545" p-id="1897"></path><path d="M391.6 673.6m-269.8 0a269.8 269.8 0 1 0 539.6 0 269.8 269.8 0 1 0-539.6 0Z" fill="#EBECCE" p-id="1898"></path><path d="M361.5 403.8c-102.6 0-191.9 57.3-237.5 141.6 44.3-76.4 126.9-127.8 221.6-127.8 141.4 0 256.1 114.6 256.1 256.1 0 141.4-114.6 256.1-256.1 256.1-94.7 0-177.3-51.4-221.6-127.8 45.6 84.3 134.9 141.6 237.5 141.6 149 0 269.8-120.8 269.8-269.8 0-149.2-120.8-270-269.8-270z" fill="#ABBE9D" p-id="1899"></path><path d="M618.6 606.8c-6.4 0-12.3-4.1-14.3-10.5-33.8-106.1-131.4-177.4-242.8-177.4-89.2 0-170.3 45.4-217.1 121.4-4.4 7.1-13.6 9.3-20.7 4.9s-9.3-13.6-4.9-20.7c52.3-85 143.1-135.7 242.8-135.7 124.6 0 233.8 79.7 271.5 198.4 2.5 7.9-1.9 16.4-9.8 18.9-1.6 0.4-3.2 0.7-4.7 0.7z" fill="#533545" p-id="1900"></path><path d="M361.5 958.5c-157.1 0-284.9-127.8-284.9-284.9 0-52.8 14.6-104.4 42.1-149.2 4.4-7.1 13.6-9.3 20.7-4.9s9.3 13.6 4.9 20.7c-24.6 40-37.7 86.1-37.7 133.4 0 140.5 114.3 254.8 254.8 254.8 97.1 0 184.5-54 228-140.9 3.7-7.4 12.8-10.4 20.2-6.7 7.4 3.7 10.4 12.8 6.7 20.2-48.6 97.1-146.2 157.5-254.8 157.5zM622.9 755.6c-1.2 0-2.5-0.2-3.7-0.5-8.1-2.1-12.9-10.3-10.9-18.3 5.2-20.6 7.9-41.8 7.9-63.2 0-8.3 6.7-15 15-15s15 6.7 15 15c0 23.9-3 47.7-8.8 70.7-1.6 6.8-7.7 11.3-14.5 11.3z" fill="#533545" p-id="1901"></path><path d="M361.5 673.6m-193.1 0a193.1 193.1 0 1 0 386.2 0 193.1 193.1 0 1 0-386.2 0Z" fill="#ABBE9D" p-id="1902"></path><path d="M361.5 881.7c-114.7 0-208.1-93.4-208.1-208.1s93.4-208.1 208.1-208.1c114.8 0 208.1 93.4 208.1 208.1s-93.4 208.1-208.1 208.1z m0-386.1c-98.2 0-178 79.9-178 178 0 98.2 79.9 178 178 178s178-79.9 178-178-79.9-178-178-178z" fill="#533545" p-id="1903"></path><path d="M361.5 673.6m-90.2 0a90.2 90.2 0 1 0 180.4 0 90.2 90.2 0 1 0-180.4 0Z" fill="#E5A42F" p-id="1904"></path><path d="M361.5 778.8c-58 0-105.2-47.2-105.2-105.2s47.2-105.2 105.2-105.2 105.2 47.2 105.2 105.2-47.2 105.2-105.2 105.2z m0-180.3c-41.4 0-75.1 33.7-75.1 75.1 0 41.4 33.7 75.1 75.1 75.1s75.1-33.7 75.1-75.1c0-41.4-33.7-75.1-75.1-75.1z" fill="#533545" p-id="1905"></path><path d="M861 831.9m-86.3 0a86.3 86.3 0 1 0 172.6 0 86.3 86.3 0 1 0-172.6 0Z" fill="#EBECCE" p-id="1906"></path><path d="M830.9 745.6c-45.1 0-82.1 34.6-85.9 78.8 3.8-37.2 35.2-66.2 73.4-66.2 40.8 0 73.8 33 73.8 73.8s-33 73.8-73.8 73.8c-38.2 0-69.6-29-73.4-66.2 3.8 44.1 40.8 78.8 85.9 78.8 47.7 0 86.3-38.6 86.3-86.3 0.1-47.8-38.6-86.5-86.3-86.5z" fill="#ABBE9D" p-id="1907"></path><path d="M830.9 933.3c-55.9 0-101.4-45.5-101.4-101.4 0-55.9 45.5-101.4 101.4-101.4 55.9 0 101.4 45.5 101.4 101.4 0 55.9-45.5 101.4-101.4 101.4z m0-172.6c-39.3 0-71.3 32-71.3 71.3s32 71.3 71.3 71.3 71.3-32 71.3-71.3c0-39.4-31.9-71.3-71.3-71.3z" fill="#533545" p-id="1908"></path><path d="M830.9 542.9v262.4" fill="#ABBE9D" p-id="1909"></path><path d="M830.9 820.3c-8.3 0-15-6.7-15-15V542.9c0-8.3 6.7-15 15-15s15 6.7 15 15v262.4c0.1 8.3-6.6 15-15 15zM361.5 407.9c-8.3 0-15-6.7-15-15V239.2l-42-144c-0.2-0.6-0.7-1-1.4-1H181.6c-8.3 0-15-6.7-15-15s6.7-15 15-15H303c13.9 0 26.4 9.3 30.3 22.7l42 144.1c0.8 2.7 1.2 5.5 1.2 8.3V393c0 8.1-6.7 14.9-15 14.9z" fill="#533545" p-id="1910"></path><path d="M663.4 371.7h-317V220.9h253.7c49.1 0 89 39.9 89 89v36c0 14.2-11.5 25.8-25.7 25.8z m-286.9-30.1H659V310c0-32.5-26.4-58.9-58.9-58.9H376.5v90.5z" fill="#533545" p-id="1911"></path><path d="M673.3 356.6H361.5V236h307.2c3 0 5.4 2.4 5.4 5.4v114.5c0 0.4-0.4 0.7-0.8 0.7z" fill="#EBECCE" p-id="1912"></path><path d="M663.4 371.7h-317V220.9h253.7c49.1 0 89 39.9 89 89v36c0 14.2-11.5 25.8-25.7 25.8z m-286.9-30.1H659V310c0-32.5-26.4-58.9-58.9-58.9H376.5v90.5zM376.5 551.8h-30.1c-0.4 0-0.8-0.4-0.8-0.8v-77.7c0-0.4 0.4-0.8 0.8-0.8h30.1c0.4 0 0.8 0.4 0.8 0.8V551c0 0.4-0.3 0.8-0.8 0.8zM239.6 658.6v30.1c0 0.4-0.4 0.8-0.8 0.8h-77.7c-0.4 0-0.8-0.4-0.8-0.8v-30.1c0-0.4 0.4-0.8 0.8-0.8h77.7c0.4-0.1 0.8 0.3 0.8 0.8z" fill="#533545" p-id="1913"></path><path d="M346.4 795.5h30.1c0.4 0 0.8 0.4 0.8 0.8V874c0 0.4-0.4 0.8-0.8 0.8h-30.1c-0.4 0-0.8-0.4-0.8-0.8v-77.7c0-0.4 0.3-0.8 0.8-0.8z" fill="#533545" p-id="1914"></path><path d="M483.3 688.7v-30.1c0-0.4 0.4-0.8 0.8-0.8h77.7c0.4 0 0.8 0.4 0.8 0.8v30.1c0 0.4-0.4 0.8-0.8 0.8h-77.7c-0.4 0-0.8-0.4-0.8-0.8z" fill="#533545" p-id="1915"></path></svg>